<?xml version="1.0" encoding="UTF-8"?>
<svg version="1.1" xmlns="http://www.w3.org/2000/svg" width="284" height="80">
<path d="M0 0 C3.42763594 3.59901774 5.14294358 6.11904339 5.125 11.0625 C5 15 5 15 4 16 C2.48071962 16.07179964 0.95832518 16.08392007 -0.5625 16.0625 C-1.38878906 16.05347656 -2.21507812 16.04445313 -3.06640625 16.03515625 C-4.02353516 16.01775391 -4.02353516 16.01775391 -5 16 C-5.9765625 14.20963542 -6.953125 12.41927083 -7.9296875 10.62890625 C-8.91410024 8.83381685 -8.91410024 8.83381685 -11 8 C-12.70702735 7.93003986 -14.41668003 7.91559846 -16.125 7.9375 C-17.03507812 7.94652344 -17.94515625 7.95554687 -18.8828125 7.96484375 C-19.58148438 7.97644531 -20.28015625 7.98804688 -21 8 C-21.33425735 10.37374861 -21.33425735 10.37374861 -21 13 C-17.54861834 16.66161811 -12.3071604 17.91861213 -7.6640625 19.57421875 C-2.2614069 21.61110705 2.3889981 24.21736036 5.375 29.375 C6.52363152 34.19925237 6.67377598 38.20535029 4.4375 42.6875 C1.7201612 46.99075895 -2.08845641 49.12828036 -6.95703125 50.5859375 C-15.1862153 52.25380272 -22.95766185 50.66622304 -29.9375 46.0625 C-33.88209073 42.11790927 -34.48821916 38.52723308 -35 33 C-34.67 32.34 -34.34 31.68 -34 31 C-30.37 31 -26.74 31 -23 31 C-22.319375 32.7015625 -22.319375 32.7015625 -21.625 34.4375 C-20.42904194 38.04721692 -20.42904194 38.04721692 -18 39 C-16.50350638 39.12005453 -15.00125207 39.17531451 -13.5 39.1875 C-12.7059375 39.20167969 -11.911875 39.21585938 -11.09375 39.23046875 C-8.77966683 39.19666303 -8.77966683 39.19666303 -7 37 C-6.83312552 34.41645782 -6.83312552 34.41645782 -7 32 C-7.53367187 31.82984375 -8.06734375 31.6596875 -8.6171875 31.484375 C-26.41614268 25.69509546 -26.41614268 25.69509546 -31 20 C-31.61875 19.2575 -32.2375 18.515 -32.875 17.75 C-34.54954381 13.65667068 -34.09702314 10.23137496 -33 6 C-30.70775219 1.57923636 -28.5001517 -0.86242794 -24 -3 C-15.75318993 -5.49690198 -7.25559945 -4.69125037 0 0 Z " fill="#FFFEFE" transform="translate(35,18)"/>
<path d="M0 0 C0.763125 0.495 1.52625 0.99 2.3125 1.5 C2.6425 0.84 2.9725 0.18 3.3125 -0.5 C6.9425 -0.5 10.5725 -0.5 14.3125 -0.5 C14.33714638 5.32071622 14.3553343 11.14140234 14.36743164 16.9621582 C14.37247267 18.94393441 14.37930538 20.92570689 14.38793945 22.9074707 C14.40001515 25.74952109 14.40573045 28.59152247 14.41015625 31.43359375 C14.41531754 32.32525742 14.42047882 33.21692108 14.42579651 34.13560486 C14.42599177 36.25740601 14.3746003 38.3791078 14.3125 40.5 C13.3125 41.5 13.3125 41.5 11.24609375 41.59765625 C10.42238281 41.58605469 9.59867188 41.57445312 8.75 41.5625 C7.92371094 41.55347656 7.09742188 41.54445312 6.24609375 41.53515625 C5.60800781 41.52355469 4.96992187 41.51195312 4.3125 41.5 C3.9825 40.18 3.6525 38.86 3.3125 37.5 C2.69375 37.974375 2.075 38.44875 1.4375 38.9375 C-3.7614992 41.5369996 -8.73901919 42.3888174 -14.3828125 40.6875 C-20.27644787 38.01337291 -23.478331 35.09016536 -26.6875 29.5 C-27.83080513 26.07008462 -27.89131651 23.3013584 -27.9375 19.6875 C-27.97617188 17.88345703 -27.97617188 17.88345703 -28.015625 16.04296875 C-27.31650991 8.49419035 -23.09391059 4.40546786 -17.5625 -0.3125 C-11.78883441 -2.69727492 -5.71744091 -2.32573868 0 0 Z M-13.6875 11.5 C-16.43949394 14.61892647 -16.91556081 16.96198213 -16.6875 21 C-16.15965901 24.36358246 -15.57809696 25.65766908 -13.5625 28.5625 C-9.91580691 31.02005404 -8.01056567 31.11758081 -3.6875 30.5 C-0.89848427 29.26043745 0.75600587 28.21549246 2.625 25.8125 C3.86524843 21.64075528 4.35125312 17.65634017 2.4375 13.68359375 C0.21616942 10.65118523 -1.6131427 9.52257275 -5.1875 8.4375 C-9.14272051 8.50812894 -10.66992933 8.98535777 -13.6875 11.5 Z " fill="#FFFEFE" transform="translate(98.6875,27.5)"/>
<path d="M0 0 C5.35315942 3.19347177 9.2975409 7.30636386 11.85546875 13.03125 C12.631514 16.48817885 12.75074346 19.56158 12.54296875 23.09375 C10.65665332 24.98006543 7.40096182 24.33640292 4.8828125 24.41015625 C4.2183461 24.43093735 3.5538797 24.45171844 2.86927795 24.47312927 C0.73978332 24.53868658 -1.38983793 24.59753785 -3.51953125 24.65625 C-4.96029972 24.69942939 -6.40105524 24.74304349 -7.84179688 24.78710938 C-11.38007165 24.89437393 -14.91848994 24.99562371 -18.45703125 25.09375 C-15.31280471 28.70126549 -15.31280471 28.70126549 -11.140625 30.65234375 C-10.02880859 30.59240234 -10.02880859 30.59240234 -8.89453125 30.53125 C-7.77884766 30.49837891 -7.77884766 30.49837891 -6.640625 30.46484375 C-4.4040122 30.19371611 -4.4040122 30.19371611 -2.37109375 29.05078125 C0.49724976 27.6166095 2.50906799 28.31913704 5.54296875 29.09375 C6.53296875 29.75375 7.52296875 30.41375 8.54296875 31.09375 C8.54296875 33.28125 8.54296875 33.28125 7.54296875 36.09375 C1.45113901 41.23195219 -4.59100174 42.62704014 -12.45703125 42.09375 C-18.53737114 40.67860186 -23.2969205 37.73810644 -27.45703125 33.09375 C-31.15808742 27.12430457 -31.25615423 20.99192649 -30.45703125 14.09375 C-28.67561904 7.38264362 -24.29816902 3.56005147 -18.45703125 0.09375 C-12.72259712 -1.81772804 -5.71513517 -2.10796718 0 0 Z M-18.45703125 14.09375 C-12.51703125 14.09375 -6.57703125 14.09375 -0.45703125 14.09375 C-1.95703125 10.09375 -1.95703125 10.09375 -4.45703125 9.09375 C-6.49525617 8.78208886 -6.49525617 8.78208886 -8.76953125 8.71875 C-9.90841797 8.64527344 -9.90841797 8.64527344 -11.0703125 8.5703125 C-14.32022109 9.05824971 -14.32022109 9.05824971 -18.45703125 14.09375 Z " fill="#FFFEFE" transform="translate(271.45703125,26.90625)"/>
<path d="M0 0 C3.63 0 7.26 0 11 0 C11.33 9.57 11.66 19.14 12 29 C18.21194114 22.17426738 18.21194114 22.17426738 24 15 C26.91796875 14.609375 26.91796875 14.609375 30.1875 14.75 C31.27417969 14.78609375 32.36085937 14.8221875 33.48046875 14.859375 C34.72763672 14.92898437 34.72763672 14.92898437 36 15 C36.6171875 16.8671875 36.6171875 16.8671875 37 19 C35.125 21.125 35.125 21.125 33.74609375 22.36328125 C31.4107232 24.55236461 29.31889098 26.92520742 27.1875 29.3125 C26.39730469 30.19550781 25.60710937 31.07851563 24.79296875 31.98828125 C24.20128906 32.65214844 23.60960937 33.31601562 23 34 C24.27585927 37.62645713 25.71070554 40.1164856 28.3125 42.9375 C28.92867187 43.62070312 29.54484375 44.30390625 30.1796875 45.0078125 C30.78039062 45.66523437 31.38109375 46.32265625 32 47 C37 52.54726368 37 52.54726368 37 56 C32.46019392 56.76849382 28.51618736 56.99862889 24 56 C19.8613039 52.48237602 16.9790947 48.51396297 14 44 C13.34 43.01 12.68 42.02 12 41 C11.67 45.95 11.34 50.9 11 56 C7.37 56 3.74 56 0 56 C0 37.52 0 19.04 0 0 Z " fill="#FFFEFE" transform="translate(117,12)"/>
<path d="M0 0 C4.73496716 2.72796462 8.60029243 7.22519902 10.33203125 12.44140625 C10.7387708 14.7969199 10.89329725 17.04686775 10.9375 19.4375 C10.96328125 20.27152344 10.9890625 21.10554688 11.015625 21.96484375 C10.61552369 25.05610265 9.42439117 26.94494168 7.6875 29.5 C8.66203125 30.43972656 8.66203125 30.43972656 9.65625 31.3984375 C10.4915625 32.21570312 11.326875 33.03296875 12.1875 33.875 C13.0228125 34.68710937 13.858125 35.49921875 14.71875 36.3359375 C16.6875 38.5 16.6875 38.5 16.6875 40.5 C6.53432713 41.13019694 6.53432713 41.13019694 3 38.5 C2.566875 37.84 2.13375 37.18 1.6875 36.5 C1.006875 36.974375 0.32625 37.44875 -0.375 37.9375 C-5.81108599 40.8290351 -11.095917 40.98499563 -16.96875 39.4765625 C-22.33910934 37.23891278 -26.69056765 33.33337564 -29.578125 28.2890625 C-31.87745344 22.33171154 -31.87423544 16.50899097 -29.5546875 10.5546875 C-23.88131663 -0.45832653 -11.44399629 -4.97373685 0 0 Z M-19.3125 12.5 C-21.04119779 15.95739557 -20.80216895 19.71975568 -20.3125 23.5 C-18.51856332 26.37029869 -17.32986724 27.99131638 -14.3125 29.5 C-12.77226004 29.56950541 -11.22915012 29.58452357 -9.6875 29.5625 C-8.87023437 29.55347656 -8.05296875 29.54445313 -7.2109375 29.53515625 C-6.58445313 29.52355469 -5.95796875 29.51195313 -5.3125 29.5 C-6.2715625 28.4790625 -6.2715625 28.4790625 -7.25 27.4375 C-9.6383493 24.03591161 -9.99127153 21.59566299 -10.3125 17.5 C-5.75512737 17.93820891 -2.73596555 18.35041169 0.6875 21.5 C1.03501969 18.58083462 1.22030018 16.36804524 -0.35546875 13.80078125 C-3.32479764 10.20449729 -4.91155573 8.63470618 -9.5625 8.1875 C-13.94686813 8.55286401 -15.92812477 9.76026767 -19.3125 12.5 Z " fill="#FFFEFE" transform="translate(186.3125,28.5)"/>
<path d="M0 0 C3.63 0 7.26 0 11 0 C11.04898438 1.67449219 11.09796875 3.34898438 11.1484375 5.07421875 C11.22348238 7.27866209 11.29902947 9.48308837 11.375 11.6875 C11.4059375 12.79029297 11.436875 13.89308594 11.46875 15.02929688 C11.50742188 16.09599609 11.54609375 17.16269531 11.5859375 18.26171875 C11.6173584 19.24100342 11.6487793 20.22028809 11.68115234 21.22924805 C12.02064562 24.17940819 12.61710324 26.37214619 14 29 C16.91004903 30.08223366 16.91004903 30.08223366 20 30 C23.28769927 28.30812986 23.28769927 28.30812986 23.65234375 25.05859375 C24.16773092 20.07651778 24.35392062 15.06498589 24.5625 10.0625 C24.60568359 9.09248047 24.64886719 8.12246094 24.69335938 7.12304688 C24.79862017 4.74883106 24.89973199 2.37443191 25 0 C28.63 0 32.26 0 36 0 C36.08772579 4.33320395 36.14063579 8.66617668 36.1875 13 C36.21263672 14.22074219 36.23777344 15.44148438 36.26367188 16.69921875 C36.38046205 31.10334076 36.38046205 31.10334076 31.68896484 36.51123047 C26.76374345 40.98477302 22.11887396 42.23268428 15.625 42.0625 C10.34356203 41.45726018 7.41898194 39.63744075 3.55859375 36.08203125 C0.17085244 31.55655225 -0.24586865 26.7996829 -0.1953125 21.2890625 C-0.18886719 20.04511719 -0.18242187 18.80117188 -0.17578125 17.51953125 C-0.15902344 16.23433594 -0.14226562 14.94914062 -0.125 13.625 C-0.11597656 12.31660156 -0.10695312 11.00820313 -0.09765625 9.66015625 C-0.07415085 6.4399163 -0.04129087 3.22005293 0 0 Z " fill="#FFFEFE" transform="translate(201,27)"/>
<path d="M0 0 C0 4.29 0 8.58 0 13 C1.65 13 3.3 13 5 13 C6 14 6 14 6.1328125 16.03125 C6.13023438 16.8459375 6.12765625 17.660625 6.125 18.5 C6.12886719 19.72203125 6.12886719 19.72203125 6.1328125 20.96875 C6 23 6 23 5 24 C3.35 24 1.7 24 0 24 C0.33 30.93 0.66 37.86 1 45 C2.32 45.33 3.64 45.66 5 46 C5 48.97 5 51.94 5 55 C1.93570224 56.53214888 -0.6165642 56.22938548 -4 56 C-7.5386994 54.34860695 -8.81070153 53.28394771 -11 50 C-11.22705078 47.27270508 -11.22705078 47.27270508 -11.1953125 44.01953125 C-11.18886719 42.85615234 -11.18242188 41.69277344 -11.17578125 40.49414062 C-11.15902344 39.27919922 -11.14226563 38.06425781 -11.125 36.8125 C-11.11597656 35.58595703 -11.10695313 34.35941406 -11.09765625 33.09570312 C-11.07406017 30.06360705 -11.04113841 27.03190062 -11 24 C-12.98 24 -14.96 24 -17 24 C-17.02688151 22.35425434 -17.04634123 20.70838587 -17.0625 19.0625 C-17.07410156 18.14597656 -17.08570313 17.22945312 -17.09765625 16.28515625 C-17 14 -17 14 -16 13 C-14.35 13 -12.7 13 -11 13 C-11 9.37 -11 5.74 -11 2 C-3.375 -1.125 -3.375 -1.125 0 0 Z " fill="#FFFEFE" transform="translate(61,13)"/>
<path d="M0 0 C2.73884593 -0.43524296 4.34728902 -0.62278274 7 0 C9.94907117 2.19932014 12.23917739 4.90161567 14.625 7.6875 C15.90835951 9.12934668 17.19220331 10.57076248 18.4765625 12.01171875 C19.07629883 12.69927246 19.67603516 13.38682617 20.29394531 14.09521484 C21.79411992 15.7701379 23.33836689 17.33990079 24.9609375 18.89453125 C27 21 27 21 27 23 C22.2335123 23.60321965 17.86896844 24.07680782 13.59228516 21.61279297 C11.33656968 19.66922744 9.32478282 17.63148751 7.3125 15.4375 C6.59900391 14.73302734 5.88550781 14.02855469 5.15039062 13.30273438 C-0.44453228 7.48251256 -0.44453228 7.48251256 -0.45703125 2.97265625 C-0.30621094 1.99167969 -0.15539062 1.01070312 0 0 Z " fill="#FFCC33" transform="translate(176,46)"/>
</svg>
